<?xml version="1.0" encoding="UTF-8" standalone="no" ?>
<!DOCTYPE svg PUBLIC "-//W3C//DTD SVG 1.1//EN" "http://www.w3.org/Graphics/SVG/1.1/DTD/svg11.dtd">
<svg xmlns="http://www.w3.org/2000/svg" xmlns:xlink="http://www.w3.org/1999/xlink" version="1.1" width="406.04993591308596" height="75.01999999999998" xml:space="preserve">
<desc>Created with Fabric.js 1.6.0-rc.1</desc>
<defs></defs>
<g style="stroke: none; stroke-width: 1; stroke-dasharray: none; stroke-linecap: butt; stroke-linejoin: miter; stroke-miterlimit: 10; fill: none; fill-rule: nonzero; opacity: 1;" transform="translate(10 13.71999999999997) rotate(341.87) scale(0.1 0.1)" >
  <path d="M 152.764 376.405 c 4.393 0 8.786 -1.677 12.138 -5.03 l 49.058 -49.058 c 6.706 -6.706 6.706 -17.572 0 -24.278 c -6.706 -6.706 -17.572 -6.706 -24.278 0 l -49.058 49.058 c -6.706 6.706 -6.706 17.572 0 24.278 C 143.979 374.728 148.372 376.405 152.764 376.405 z" style="stroke: none; stroke-width: 1; stroke-dasharray: none; stroke-linecap: butt; stroke-linejoin: miter; stroke-miterlimit: 10; fill: #3C4D5C; fill-rule: nonzero; opacity: 1;" transform=" matrix(1 0 0 1 0 0) " stroke-linecap="round" />
  <path d="M 134.378 188.812 c 0 -104.108 84.704 -188.811 188.811 -188.811 s 188.811 84.704 188.811 188.811 s -84.704 188.811 -188.811 188.811 S 134.378 292.92 134.378 188.812 z" style="stroke: none; stroke-width: 1; stroke-dasharray: none; stroke-linecap: butt; stroke-linejoin: miter; stroke-miterlimit: 10; fill: #347F94; fill-rule: nonzero; opacity: 1;" transform=" matrix(1 0 0 1 0 0) " stroke-linecap="round" />
  <path d="M 511.999 188.812 c 0 104.108 -84.704 188.811 -188.811 188.811 c -52.054 0 -99.257 -21.176 -133.446 -55.366 L 456.635 55.366 C 490.824 89.555 511.999 136.758 511.999 188.812 z" style="stroke: none; stroke-width: 1; stroke-dasharray: none; stroke-linecap: butt; stroke-linejoin: miter; stroke-miterlimit: 10; fill: #000ea4; fill-rule: nonzero; opacity: 1;" transform=" matrix(1 0 0 1 0 0) " stroke-linecap="round" />
  <path d="M 15.058 496.955 c 0 -0.011 0 -0.011 -0.011 -0.011 c -20.063 -20.086 -20.063 -52.758 0.011 -72.845 L 116.348 322.82 c 6.706 -6.706 17.572 -6.706 24.278 0 l 48.555 48.555 c 6.706 6.706 6.706 17.572 0 24.278 L 87.902 496.955 C 67.803 517.007 35.167 517.02 15.058 496.955 z M 27.084 484.805 h 0.112 H 27.084 z" style="stroke: none; stroke-width: 1; stroke-dasharray: none; stroke-linecap: butt; stroke-linejoin: miter; stroke-miterlimit: 10; fill: #ededed; fill-rule: nonzero; opacity: 1;" transform=" matrix(1 0 0 1 0 0) " stroke-linecap="round" />
  <path d="M 164.903 347.098 l 24.278 24.278 c 6.706 6.706 6.706 17.572 0 24.278 L 87.901 496.955 c -20.107 20.062 -52.743 20.055 -72.845 0 c 0 -0.006 -0.005 -0.005 -0.005 -0.005 L 164.903 347.098 z" style="stroke: none; stroke-width: 1; stroke-dasharray: none; stroke-linecap: butt; stroke-linejoin: miter; stroke-miterlimit: 10; fill: #43BFBF; fill-rule: nonzero; opacity: 1;" transform=" matrix(1 0 0 1 0 0) " stroke-linecap="round" />
  <path d="M 203.053 188.812 c 0 -66.238 53.898 -120.136 120.136 -120.136 s 120.136 53.898 120.136 120.136 s -53.898 120.136 -120.136 120.136 S 203.053 255.05 203.053 188.812 z" style="stroke: none; stroke-width: 1; stroke-dasharray: none; stroke-linecap: butt; stroke-linejoin: miter; stroke-miterlimit: 10; fill: #D7EBFF; fill-rule: nonzero; opacity: 1;" transform=" matrix(1 0 0 1 0 0) " stroke-linecap="round" />
  <path d="M 443.325 188.812 c 0 66.238 -53.898 120.136 -120.136 120.136 c -33.12 0 -63.153 -13.474 -84.907 -35.229 l 169.816 -169.815 C 429.851 125.659 443.325 155.693 443.325 188.812 z" style="stroke: none; stroke-width: 1; stroke-dasharray: none; stroke-linecap: butt; stroke-linejoin: miter; stroke-miterlimit: 10; fill: #BDDEFF; fill-rule: nonzero; opacity: 1;" transform=" matrix(1 0 0 1 0 0) " stroke-linecap="round" />
</g>
  <g transform="translate(234.95 36.72)">
   <text font-family="Broad" font-size="40" font-weight="normal" style="stroke: none; stroke-width: 1; stroke-dasharray: none; stroke-linecap: butt; stroke-linejoin: miter; stroke-miterlimit: 10; fill: #f5ebf5; fill-rule: nonzero; opacity: 1;" ><tspan x="-161.6" y="8.98" style="stroke: none; stroke-width: 0; stroke-dasharray: none; stroke-linecap: butt; stroke-linejoin: miter; stroke-miterlimit: 4; fill: #f5ebf5; fill-rule: ; opacity: 1;">n</tspan><tspan x="-128.2" y="8.98" style="stroke: none; stroke-width: 0; stroke-dasharray: none; stroke-linecap: butt; stroke-linejoin: miter; stroke-miterlimit: 4; fill: #f5ebf5; fill-rule: ; opacity: 1;">e</tspan><tspan x="-104.6" y="8.98" style="stroke: none; stroke-width: 0; stroke-dasharray: none; stroke-linecap: butt; stroke-linejoin: miter; stroke-miterlimit: 4; fill: #f5ebf5; fill-rule: ; opacity: 1;">w</tspan><tspan x="-51.4" y="8.98" style="stroke: none; stroke-width: 0; stroke-dasharray: none; stroke-linecap: butt; stroke-linejoin: miter; stroke-miterlimit: 4; fill: #f5ebf5; fill-rule: ; opacity: 1;">s</tspan><tspan x="-17.72" y="8.98" style="stroke: none; stroke-width: 0; stroke-dasharray: none; stroke-linecap: butt; stroke-linejoin: miter; stroke-miterlimit: 4; fill: #f5ebf5; fill-rule: ; opacity: 1;">W</tspan><tspan x="35.4" y="8.98" style="stroke: none; stroke-width: 0; stroke-dasharray: none; stroke-linecap: butt; stroke-linejoin: miter; stroke-miterlimit: 4; fill: #f5ebf5; fill-rule: ; opacity: 1;">o</tspan><tspan x="69" y="8.98" style="stroke: none; stroke-width: 0; stroke-dasharray: none; stroke-linecap: butt; stroke-linejoin: miter; stroke-miterlimit: 4; fill: #f5ebf5; fill-rule: ; opacity: 1;">r</tspan><tspan x="102.6" y="8.98" style="stroke: none; stroke-width: 0; stroke-dasharray: none; stroke-linecap: butt; stroke-linejoin: miter; stroke-miterlimit: 4; fill: #f5ebf5; fill-rule: ; opacity: 1;">l</tspan><tspan x="127.92" y="8.98" style="stroke: none; stroke-width: 0; stroke-dasharray: none; stroke-linecap: butt; stroke-linejoin: miter; stroke-miterlimit: 4; fill: #f5ebf5; fill-rule: ; opacity: 1;">d</tspan></text>
 </g>
</svg>